<svg width="57" height="57" viewBox="0 0 57 57" fill="none" xmlns="http://www.w3.org/2000/svg">
<path d="M27.5289 22V14H19.4755V8.66669H27.5289V0.666687H32.8978V8.66669H40.9511V14H32.8978V22H27.5289ZM16.7911 56.6667C15.3147 56.6667 14.0512 56.1449 13.0007 55.1014C11.9502 54.0578 11.424 52.8018 11.4222 51.3334C11.4204 49.8649 11.9466 48.6098 13.0007 47.568C14.0548 46.5262 15.3182 46.0036 16.7911 46C18.264 45.9965 19.5283 46.5191 20.5842 47.568C21.6401 48.6169 22.1654 49.872 22.16 51.3334C22.1546 52.7947 21.6294 54.0507 20.5842 55.1014C19.5391 56.152 18.2747 56.6738 16.7911 56.6667ZM43.6355 56.6667C42.1591 56.6667 40.8956 56.1449 39.8451 55.1014C38.7946 54.0578 38.2684 52.8018 38.2667 51.3334C38.2649 49.8649 38.791 48.6098 39.8451 47.568C40.8992 46.5262 42.1627 46.0036 43.6355 46C45.1084 45.9965 46.3728 46.5191 47.4287 47.568C48.4845 48.6169 49.0098 49.872 49.0044 51.3334C48.9991 52.7947 48.4738 54.0507 47.4287 55.1014C46.3835 56.152 45.1191 56.6738 43.6355 56.6667ZM0.684433 8.66669V3.33335H9.47599L20.8849 27.3334H39.676L50.1453 8.66669H56.2524L44.4409 29.8667C43.9487 30.7556 43.2892 31.4445 42.4624 31.9334C41.6356 32.4222 40.7292 32.6667 39.7431 32.6667H19.744L16.7911 38H49.0044V43.3334H16.7911C14.7778 43.3334 13.2449 42.4667 12.1926 40.7334C11.1403 39 11.1072 37.2445 12.0933 35.4667L15.7173 28.9334L6.05332 8.66669H0.684433Z" fill="white"/>
</svg>
