<svg width="105" height="105" viewBox="0 0 105 105" fill="none" xmlns="http://www.w3.org/2000/svg">
<path d="M4.66669 15.5758H18L26.704 41.6932C28.8278 48.0659 32.9032 53.6087 38.3527 57.5362C43.8021 61.4637 50.3494 63.5767 57.0667 63.5758H71.3334C79.113 63.5758 86.5741 60.4854 92.0752 54.9843C97.5762 49.4832 100.667 42.0222 100.667 34.2425C100.667 26.4628 97.5762 19.0018 92.0752 13.5007C86.5741 7.99965 79.113 4.90918 71.3334 4.90918H68.6667V36.9092M26 36.9092H100.667M42 79.5758L47.3334 63.5758M79.3334 63.5758L84.6667 79.5758M26 90.2425C26 93.0715 27.1238 95.7846 29.1242 97.785C31.1246 99.7854 33.8377 100.909 36.6667 100.909C39.4957 100.909 42.2088 99.7854 44.2092 97.785C46.2095 95.7846 47.3334 93.0715 47.3334 90.2425C47.3334 87.4135 46.2095 84.7004 44.2092 82.7C42.2088 80.6997 39.4957 79.5758 36.6667 79.5758C33.8377 79.5758 31.1246 80.6997 29.1242 82.7C27.1238 84.7004 26 87.4135 26 90.2425ZM79.3334 90.2425C79.3334 93.0715 80.4572 95.7846 82.4576 97.785C84.4579 99.7854 87.171 100.909 90 100.909C92.829 100.909 95.5421 99.7854 97.5425 97.785C99.5429 95.7846 100.667 93.0715 100.667 90.2425C100.667 87.4135 99.5429 84.7004 97.5425 82.7C95.5421 80.6997 92.829 79.5758 90 79.5758C87.171 79.5758 84.4579 80.6997 82.4576 82.7C80.4572 84.7004 79.3334 87.4135 79.3334 90.2425Z" stroke="#B71A51" stroke-width="8" stroke-linecap="round" stroke-linejoin="round"/>
</svg>
