<svg width="94" height="94" viewBox="0 0 94 94" fill="none" xmlns="http://www.w3.org/2000/svg">
<path d="M26 9.57601C26 8.16152 25.4381 6.80497 24.4379 5.80477C23.4377 4.80458 22.0812 4.24268 20.6667 4.24268H10C8.58551 4.24268 7.22896 4.80458 6.22876 5.80477C5.22857 6.80497 4.66666 8.16152 4.66666 9.57601V84.2427C4.66666 85.6572 5.22857 87.0137 6.22876 88.0139C7.22896 89.0141 8.58551 89.576 10 89.576H20.6667C22.0812 89.576 23.4377 89.0141 24.4379 88.0139C25.4381 87.0137 26 85.6572 26 84.2427M26 9.57601V84.2427M26 9.57601C26 8.16152 26.5619 6.80497 27.5621 5.80477C28.5623 4.80458 29.9188 4.24268 31.3333 4.24268H42C43.4145 4.24268 44.771 4.80458 45.7712 5.80477C46.7714 6.80497 47.3333 8.16152 47.3333 9.57601V84.2427C47.3333 85.6572 46.7714 87.0137 45.7712 88.0139C44.771 89.0141 43.4145 89.576 42 89.576H31.3333C29.9188 89.576 28.5623 89.0141 27.5621 88.0139C26.5619 87.0137 26 85.6572 26 84.2427M4.66666 25.576H26M26 68.2427H47.3333" stroke="#D14400" stroke-width="8" stroke-linecap="round" stroke-linejoin="round"/>
<path d="M52.6667 30.9092L74 25.5759M63.3333 68.2426L84.256 63.0159M51.616 7.22924L63.264 4.40258C66.2613 3.68258 69.3067 5.41591 70.1013 8.30658L89.808 79.8692C90.1557 81.1794 90.0017 82.5721 89.3762 83.7747C88.7508 84.9772 87.6989 85.903 86.4267 86.3706L85.7173 86.5892L74.0693 89.4159C71.072 90.1359 68.0267 88.4026 67.232 85.5119L47.5253 13.9492C47.1777 12.6391 47.3316 11.2464 47.9571 10.0438C48.5825 8.84126 49.6344 7.91552 50.9067 7.44791L51.616 7.22924Z" stroke="#D14400" stroke-width="8" stroke-linecap="round" stroke-linejoin="round"/>
</svg>
