<svg width="104" height="105" viewBox="0 0 104 105" fill="none" xmlns="http://www.w3.org/2000/svg">
<path d="M4 100.909V79.5758C4 75.3564 5.25118 71.2319 7.59532 67.7236C9.93945 64.2154 13.2713 61.481 17.1694 59.8663C21.0676 58.2517 25.357 57.8292 29.4953 58.6524C33.6335 59.4755 37.4348 61.5073 40.4183 64.4908C43.4018 67.4744 45.4336 71.2756 46.2568 75.4139C47.0799 79.5521 46.6574 83.8415 45.0428 87.7397C43.4281 91.6378 40.6937 94.9697 37.1855 97.3138C33.6772 99.6579 29.5527 100.909 25.3333 100.909H4Z" stroke="#CC9900" stroke-width="8" stroke-linecap="round" stroke-linejoin="round"/>
<path d="M31.7333 59.3092C37.1611 44.9358 46.3687 32.2945 58.3843 22.7195C70.3999 13.1446 84.7777 6.99131 100 4.90918C97.9179 20.1315 91.7646 34.5093 82.1897 46.5249C72.6147 58.5405 59.9734 67.7481 45.6 73.1758" stroke="#CC9900" stroke-width="8" stroke-linecap="round" stroke-linejoin="round"/>
<path d="M44.5333 36.9092C54.8969 41.6925 63.2167 50.0123 68 60.3758" stroke="#CC9900" stroke-width="8" stroke-linecap="round" stroke-linejoin="round"/>
</svg>
