<svg width="104" height="79" viewBox="0 0 104 79" fill="none" xmlns="http://www.w3.org/2000/svg">
<path d="M14.6667 63.5758C14.6667 66.4048 15.7905 69.1179 17.7909 71.1183C19.7912 73.1187 22.5044 74.2425 25.3333 74.2425C28.1623 74.2425 30.8754 73.1187 32.8758 71.1183C34.8762 69.1179 36 66.4048 36 63.5758C36 60.7469 34.8762 58.0338 32.8758 56.0334C30.8754 54.033 28.1623 52.9092 25.3333 52.9092C22.5044 52.9092 19.7912 54.033 17.7909 56.0334C15.7905 58.0338 14.6667 60.7469 14.6667 63.5758ZM68 63.5758C68 66.4048 69.1238 69.1179 71.1242 71.1183C73.1246 73.1187 75.8377 74.2425 78.6667 74.2425C81.4956 74.2425 84.2087 73.1187 86.2091 71.1183C88.2095 69.1179 89.3333 66.4048 89.3333 63.5758C89.3333 60.7469 88.2095 58.0338 86.2091 56.0334C84.2087 54.033 81.4956 52.9092 78.6667 52.9092C75.8377 52.9092 73.1246 54.033 71.1242 56.0334C69.1238 58.0338 68 60.7469 68 63.5758Z" stroke="#06008A" stroke-width="8" stroke-linecap="round" stroke-linejoin="round"/>
<path d="M14.6667 63.5758H4V31.5758M4 31.5758L14.6667 4.90918H62.6667L84 31.5758M4 31.5758H84M84 31.5758H89.3333C92.1623 31.5758 94.8754 32.6997 96.8758 34.7C98.8762 36.7004 100 39.4135 100 42.2425V63.5758H89.3333M68 63.5758H36M52 31.5758V4.90918" stroke="#06008A" stroke-width="8" stroke-linecap="round" stroke-linejoin="round"/>
</svg>
