<svg width="54" height="54" viewBox="0 0 54 54" fill="none" xmlns="http://www.w3.org/2000/svg">
<path d="M16.6667 53.6667C15.2 53.6667 13.9449 53.1449 12.9013 52.1013C11.8578 51.0578 11.3351 49.8018 11.3333 48.3333C11.3316 46.8649 11.8542 45.6098 12.9013 44.568C13.9484 43.5262 15.2036 43.0036 16.6667 43C18.1298 42.9965 19.3858 43.5191 20.4347 44.568C21.4836 45.6169 22.0053 46.872 22 48.3333C21.9947 49.7947 21.4729 51.0507 20.4347 52.1013C19.3964 53.152 18.1404 53.6738 16.6667 53.6667ZM43.3333 53.6667C41.8667 53.6667 40.6116 53.1449 39.568 52.1013C38.5244 51.0578 38.0018 49.8018 38 48.3333C37.9982 46.8649 38.5209 45.6098 39.568 44.568C40.6151 43.5262 41.8702 43.0036 43.3333 43C44.7964 42.9965 46.0524 43.5191 47.1013 44.568C48.1502 45.6169 48.672 46.872 48.6667 48.3333C48.6613 49.7947 48.1396 51.0507 47.1013 52.1013C46.0631 53.152 44.8071 53.6738 43.3333 53.6667ZM14.4 11L20.8 24.3333H39.4667L46.8 11H14.4ZM11.8667 5.66668H51.2C52.2222 5.66668 53 6.12268 53.5333 7.03468C54.0667 7.94668 54.0889 8.86846 53.6 9.80001L44.1333 26.8667C43.6444 27.7556 42.9893 28.4445 42.168 28.9333C41.3467 29.4222 40.4462 29.6667 39.4667 29.6667H19.6L16.6667 35H48.6667V40.3333H16.6667C14.6667 40.3333 13.1556 39.456 12.1333 37.7013C11.1111 35.9467 11.0667 34.2018 12 32.4667L15.6 25.9333L6 5.66668H0.666667V0.333344H9.33333L11.8667 5.66668Z" fill="#F2F2F2"/>
</svg>
