<svg width="24" height="24" viewBox="0 0 24 24" fill="none" xmlns="http://www.w3.org/2000/svg">
<path d="M2.66667 24C1.93333 24 1.30578 23.7391 0.784 23.2173C0.262222 22.6956 0.000888889 22.0676 0 21.3333V2.66667C0 1.93333 0.261333 1.30578 0.784 0.784C1.30667 0.262222 1.93422 0.000888889 2.66667 0H21.3333C22.0667 0 22.6947 0.261333 23.2173 0.784C23.74 1.30667 24.0009 1.93422 24 2.66667V21.3333C24 22.0667 23.7391 22.6947 23.2173 23.2173C22.6956 23.74 22.0676 24.0009 21.3333 24H2.66667ZM2.66667 21.3333H21.3333V2.66667H2.66667V21.3333ZM12 4C10.3111 4 8.82222 4.58889 7.53333 5.76667C6.24444 6.94444 5.6 8.54444 5.6 10.5667C5.6 12.1889 6.23333 13.7889 7.5 15.3667C8.76667 16.9444 9.96667 18.2333 11.1 19.2333C11.2333 19.3444 11.3778 19.428 11.5333 19.484C11.6889 19.54 11.8444 19.5676 12 19.5667C12.1556 19.5658 12.3111 19.5382 12.4667 19.484C12.6222 19.4298 12.7667 19.3462 12.9 19.2333C14.0333 18.2333 15.2333 16.9444 16.5 15.3667C17.7667 13.7889 18.4 12.1889 18.4 10.5667C18.4 8.54444 17.7556 6.94444 16.4667 5.76667C15.1778 4.58889 13.6889 4 12 4ZM12 12.3333C11.5333 12.3333 11.1387 12.172 10.816 11.8493C10.4933 11.5267 10.3324 11.1324 10.3333 10.6667C10.3342 10.2009 10.4956 9.80622 10.8173 9.48267C11.1391 9.15911 11.5333 8.99822 12 9C12.4667 9.00178 12.8613 9.16311 13.184 9.484C13.5067 9.80489 13.6676 10.1991 13.6667 10.6667C13.6658 11.1342 13.5044 11.5289 13.1827 11.8507C12.8609 12.1724 12.4667 12.3333 12 12.3333Z" fill="white"/>
</svg>
