<svg width="12" height="7" viewBox="0 0 12 7" fill="none" xmlns="http://www.w3.org/2000/svg">
<path d="M5.3 6.29998L0.466663 1.46665C0.399996 1.39998 0.350218 1.32798 0.317329 1.25065C0.284441 1.17331 0.267551 1.08976 0.266663 0.99998C0.266663 0.822202 0.327996 0.666646 0.450663 0.533313C0.573329 0.399979 0.734218 0.333313 0.933329 0.333313H11.0667C11.2667 0.333313 11.428 0.399979 11.5507 0.533313C11.6733 0.666646 11.7342 0.822202 11.7333 0.99998C11.7333 1.04442 11.6667 1.19998 11.5333 1.46665L6.7 6.29998C6.58888 6.41109 6.47777 6.48887 6.36666 6.53331C6.25555 6.57776 6.13333 6.59998 6 6.59998C5.86666 6.59998 5.74444 6.57776 5.63333 6.53331C5.52222 6.48887 5.41111 6.41109 5.3 6.29998Z" fill="white"/>
</svg>
