<svg width="48" height="32" viewBox="0 0 48 32" fill="none" xmlns="http://www.w3.org/2000/svg">
<path d="M2.66668 32C1.91112 32 1.27823 31.744 0.768009 31.232C0.257787 30.72 0.00178697 30.0871 9.19539e-06 29.3333C-0.00176858 28.5796 0.254232 27.9467 0.768009 27.4347C1.28179 26.9227 1.91468 26.6667 2.66668 26.6667H45.3333C46.0889 26.6667 46.7227 26.9227 47.2347 27.4347C47.7467 27.9467 48.0018 28.5796 48 29.3333C47.9982 30.0871 47.7422 30.7209 47.232 31.2347C46.7218 31.7484 46.0889 32.0036 45.3333 32H2.66668ZM2.66668 18.6667C1.91112 18.6667 1.27823 18.4107 0.768009 17.8987C0.257787 17.3867 0.00178697 16.7538 9.19539e-06 16C-0.00176858 15.2462 0.254232 14.6133 0.768009 14.1013C1.28179 13.5893 1.91468 13.3333 2.66668 13.3333H45.3333C46.0889 13.3333 46.7227 13.5893 47.2347 14.1013C47.7467 14.6133 48.0018 15.2462 48 16C47.9982 16.7538 47.7422 17.3876 47.232 17.9013C46.7218 18.4151 46.0889 18.6702 45.3333 18.6667H2.66668ZM2.66668 5.33333C1.91112 5.33333 1.27823 5.07733 0.768009 4.56533C0.257787 4.05333 0.00178697 3.42044 9.19539e-06 2.66667C-0.00176858 1.91289 0.254232 1.28 0.768009 0.768C1.28179 0.256 1.91468 0 2.66668 0H45.3333C46.0889 0 46.7227 0.256 47.2347 0.768C47.7467 1.28 48.0018 1.91289 48 2.66667C47.9982 3.42044 47.7422 4.05422 47.232 4.568C46.7218 5.08178 46.0889 5.33689 45.3333 5.33333H2.66668Z" fill="white"/>
</svg>
