<svg width="16" height="9" viewBox="0 0 16 9" fill="none" xmlns="http://www.w3.org/2000/svg">
<path d="M1.66668 8.33333C1.41668 8.33333 1.21557 8.25 1.06334 8.08333C0.911121 7.91667 0.834455 7.72222 0.833344 7.5C0.833344 7.44444 0.916677 7.25 1.08334 6.91667L7.12501 0.874999C7.2639 0.73611 7.40279 0.638889 7.54168 0.583334C7.68057 0.527778 7.83334 0.5 8.00001 0.5C8.16668 0.5 8.31945 0.527778 8.45834 0.583334C8.59723 0.638889 8.73612 0.73611 8.87501 0.874999L14.9167 6.91667C15 7 15.0628 7.09056 15.105 7.18833C15.1472 7.28611 15.1678 7.39 15.1667 7.5C15.1667 7.72222 15.0906 7.91667 14.9383 8.08333C14.7861 8.25 14.5845 8.33333 14.3333 8.33333H1.66668Z" fill="#F2F2F2"/>
</svg>
