<svg width="44" height="44" viewBox="0 0 44 44" fill="none" xmlns="http://www.w3.org/2000/svg">
<path d="M16.0667 22C14.4667 22 13.1333 21.4 12.0667 20.2C11 19 10.5778 17.6 10.8 16L11.6667 9.46666C12.0222 6.93333 13.1778 4.83288 15.1333 3.16533C17.0889 1.49777 19.3778 0.664882 22 0.666659C24.6222 0.668437 26.9111 1.50222 28.8667 3.16799C30.8222 4.83377 31.9778 6.93333 32.3333 9.46666L33.2 16C33.4222 17.6 33 19 31.9333 20.2C30.8667 21.4 29.5333 22 27.9333 22H16.0667ZM16.0667 16.6667H27.9333L27.0667 10.2667C26.8889 9.02221 26.3227 7.99999 25.368 7.19999C24.4133 6.39999 23.2907 5.99999 22 5.99999C20.7093 5.99999 19.5867 6.39999 18.632 7.19999C17.6773 7.99999 17.1111 9.02221 16.9333 10.2667L16.0667 16.6667ZM0.666668 38V35.8667C0.666668 34.3556 1.056 32.9671 1.83467 31.7013C2.61334 30.4355 3.64622 29.4684 4.93333 28.8C7.68889 27.4222 10.4889 26.3893 13.3333 25.7013C16.1778 25.0133 19.0667 24.6684 22 24.6667C24.9333 24.6649 27.8222 25.0098 30.6667 25.7013C33.5111 26.3929 36.3111 27.4258 39.0667 28.8C40.3556 29.4667 41.3893 30.4338 42.168 31.7013C42.9467 32.9689 43.3351 34.3573 43.3333 35.8667V38C43.3333 39.4667 42.8116 40.7227 41.768 41.768C40.7244 42.8133 39.4684 43.3351 38 43.3333H6C4.53333 43.3333 3.27822 42.8115 2.23467 41.768C1.19111 40.7244 0.668446 39.4684 0.666668 38ZM6 38H38V35.8667C38 35.3778 37.8782 34.9333 37.6347 34.5333C37.3911 34.1333 37.0684 33.8222 36.6667 33.6C34.2667 32.4 31.8444 31.5004 29.4 30.9013C26.9556 30.3022 24.4889 30.0018 22 30C19.5111 29.9982 17.0444 30.2987 14.6 30.9013C12.1556 31.504 9.73333 32.4035 7.33333 33.6C6.93333 33.8222 6.61067 34.1333 6.36533 34.5333C6.12 34.9333 5.99822 35.3778 6 35.8667V38Z" fill="#F2F2F2"/>
</svg>
